<svg height="512" viewBox="0 0 64 64" width="512" xmlns="http://www.w3.org/2000/svg" xmlns:xlink="http://www.w3.org/1999/xlink"><linearGradient id="gradient_ice" gradientUnits="userSpaceOnUse" x1="6.452" x2="62.182" y1="61.806" y2="-3.212"><stop offset="0" stop-color="#fff200"/><stop offset="1" stop-color="#cd118c"/></linearGradient><linearGradient id="gradient_ice-4" x1="6.452" x2="62.182" xlink:href="#gradient_ice" y1="61.806" y2="-3.212"/><linearGradient id="gradient_ice-5" x1="-4.756" x2="50.974" xlink:href="#gradient_ice" y1="52.2" y2="-12.819"/><linearGradient id="gradient_ice-6" x1="17.66" x2="73.39" xlink:href="#gradient_ice" y1="71.413" y2="6.394"/><g id="money-currency-arrows-finance-business"><g fill="url(#gradient_ice)"><path d="m61 14h-58a1 1 0 0 0 -1 1v34a1 1 0 0 0 1 1h58a1 1 0 0 0 1-1v-34a1 1 0 0 0 -1-1zm-1 34h-56v-32h56z"/><path d="m57 24a5 5 0 0 1 -5-5 1 1 0 0 0 -1-1h-38a1 1 0 0 0 -1 1 5 5 0 0 1 -5 5 1 1 0 0 0 -1 1v14a1 1 0 0 0 1 1 5 5 0 0 1 5 5 1 1 0 0 0 1 1h38a1 1 0 0 0 1-1 5 5 0 0 1 5-5 1 1 0 0 0 1-1v-14a1 1 0 0 0 -1-1zm-1 14.07a7.022 7.022 0 0 0 -5.93 5.93h-36.14a7.022 7.022 0 0 0 -5.93-5.93v-12.14a7.022 7.022 0 0 0 5.93-5.93h36.14a7.022 7.022 0 0 0 5.93 5.93z"/><path d="m32 22a10 10 0 1 0 10 10 10.016 10.016 0 0 0 -10-10zm0 18a8 8 0 1 1 8-8 8.011 8.011 0 0 1 -8 8z"/></g><path d="m35 30v-1a1 1 0 0 0 -1-1h-4a1 1 0 0 0 -1 1v1a1 1 0 0 0 1 1h4a3.009 3.009 0 0 1 3 3v1a3.009 3.009 0 0 1 -3 3h-1v1h-2v-1h-1a3.009 3.009 0 0 1 -3-3h2a1 1 0 0 0 1 1h4a1 1 0 0 0 1-1v-1a1 1 0 0 0 -1-1h-4a3.009 3.009 0 0 1 -3-3v-1a3.009 3.009 0 0 1 3-3h1v-1h2v1h1a3.009 3.009 0 0 1 3 3v1z" fill="url(#gradient_ice-4)"/><path d="m53 6h-36v-3a1 1 0 0 0 -.57-.9.981.981 0 0 0 -1.05.12l-5 4a.991.991 0 0 0 0 1.56l5 4a.961.961 0 0 0 .62.22.907.907 0 0 0 .43-.1 1 1 0 0 0 .57-.9v-3h35v4h2v-5a1 1 0 0 0 -1-1zm-38 2.92-2.4-1.92 2.4-1.92z" fill="url(#gradient_ice-5)"/><path d="m53.62 56.22-5-4a.981.981 0 0 0 -1.05-.12 1 1 0 0 0 -.57.9v3h-35v-4h-2v5a1 1 0 0 0 1 1h36v3a1 1 0 0 0 .57.9.935.935 0 0 0 .43.1.961.961 0 0 0 .62-.22l5-4a.991.991 0 0 0 0-1.56zm-4.62 2.7v-3.84l2.4 1.92z" fill="url(#gradient_ice-6)"/></g></svg>